<svg width="320" height="320" viewBox="0 0 320 320" xmlns="http://www.w3.org/2000/svg" shape-rendering="crispEdges"><rect width="100%" height="100%" fill="#e1d7d5" /><rect width="100" height="10" x="110" y="260" fill="#fffdf2" /><rect width="100" height="10" x="110" y="270" fill="#fffdf2" /><rect width="20" height="10" x="110" y="280" fill="#fffdf2" /><rect width="70" height="10" x="140" y="280" fill="#fffdf2" /><rect width="20" height="10" x="110" y="290" fill="#fffdf2" /><rect width="70" height="10" x="140" y="290" fill="#fffdf2" /><rect width="20" height="10" x="110" y="300" fill="#fffdf2" /><rect width="70" height="10" x="140" y="300" fill="#fffdf2" /><rect width="20" height="10" x="110" y="310" fill="#fffdf2" /><rect width="70" height="10" x="140" y="310" fill="#fffdf2" /><rect width="10" height="10" x="140" y="260" fill="#ffc110" /><rect width="10" height="10" x="180" y="260" fill="#ffc110" /><rect width="10" height="10" x="150" y="270" fill="#ffc110" /><rect width="10" height="10" x="170" y="270" fill="#ffc110" /><rect width="10" height="10" x="160" y="280" fill="#ffc110" /><rect width="40" height="10" x="150" y="290" fill="#ffc110" /><rect width="10" height="10" x="160" y="300" fill="#ffef16" /><rect width="10" height="10" x="170" y="300" fill="#ffc110" /><rect width="10" height="10" x="180" y="300" fill="#ffef16" /><rect width="50" height="10" x="80" y="100" fill="#85634f" /><rect width="50" height="10" x="190" y="100" fill="#85634f" /><rect width="10" height="10" x="80" y="110" fill="#85634f" /><rect width="20" height="10" x="90" y="110" fill="#e8705b" /><rect width="20" height="10" x="110" y="110" fill="#85634f" /><rect width="20" height="10" x="190" y="110" fill="#85634f" /><rect width="20" height="10" x="210" y="110" fill="#e8705b" /><rect width="10" height="10" x="230" y="110" fill="#85634f" /><rect width="160" height="10" x="80" y="120" fill="#85634f" /><rect width="160" height="10" x="80" y="130" fill="#85634f" /><rect width="160" height="10" x="80" y="140" fill="#85634f" /><rect width="160" height="10" x="80" y="150" fill="#85634f" /><rect width="160" height="10" x="80" y="160" fill="#85634f" /><rect width="160" height="10" x="80" y="170" fill="#85634f" /><rect width="160" height="10" x="80" y="180" fill="#85634f" /><rect width="160" height="10" x="80" y="190" fill="#85634f" /><rect width="160" height="10" x="80" y="200" fill="#85634f" /><rect width="160" height="10" x="80" y="210" fill="#85634f" /><rect width="20" height="10" x="80" y="220" fill="#5a423f" /><rect width="20" height="10" x="100" y="220" fill="#85634f" /><rect width="20" height="10" x="120" y="220" fill="#5a423f" /><rect width="20" height="10" x="140" y="220" fill="#000000" /><rect width="10" height="10" x="160" y="220" fill="#f9f4e6" /><rect width="40" height="10" x="170" y="220" fill="#000000" /><rect width="10" height="10" x="210" y="220" fill="#5a423f" /><rect width="20" height="10" x="220" y="220" fill="#85634f" /><rect width="20" height="10" x="80" y="230" fill="#5a423f" /><rect width="20" height="10" x="100" y="230" fill="#85634f" /><rect width="20" height="10" x="120" y="230" fill="#5a423f" /><rect width="70" height="10" x="140" y="230" fill="#000000" /><rect width="10" height="10" x="210" y="230" fill="#5a423f" /><rect width="20" height="10" x="220" y="230" fill="#85634f" /><rect width="20" height="10" x="80" y="240" fill="#5a423f" /><rect width="20" height="10" x="100" y="240" fill="#85634f" /><rect width="20" height="10" x="120" y="240" fill="#5a423f" /><rect width="20" height="10" x="140" y="240" fill="#85634f" /><rect width="20" height="10" x="160" y="240" fill="#5a423f" /><rect width="20" height="10" x="180" y="240" fill="#85634f" /><rect width="20" height="10" x="200" y="240" fill="#5a423f" /><rect width="20" height="10" x="220" y="240" fill="#85634f" /><rect width="20" height="10" x="80" y="250" fill="#5a423f" /><rect width="20" height="10" x="100" y="250" fill="#85634f" /><rect width="20" height="10" x="120" y="250" fill="#5a423f" /><rect width="20" height="10" x="140" y="250" fill="#85634f" /><rect width="20" height="10" x="160" y="250" fill="#5a423f" /><rect width="20" height="10" x="180" y="250" fill="#85634f" /><rect width="20" height="10" x="200" y="250" fill="#5a423f" /><rect width="20" height="10" x="220" y="250" fill="#85634f" /><rect width="140" height="10" x="90" y="260" fill="#5a423f" /><rect width="80" height="10" x="80" y="140" fill="#ffef16" /><rect width="80" height="10" x="170" y="140" fill="#ffef16" /><rect width="10" height="10" x="80" y="150" fill="#ffef16" /><rect width="20" height="10" x="90" y="150" fill="#ffffff" /><rect width="40" height="10" x="110" y="150" fill="#000000" /><rect width="10" height="10" x="150" y="150" fill="#ffef16" /><rect width="10" height="10" x="170" y="150" fill="#ffef16" /><rect width="20" height="10" x="180" y="150" fill="#ffffff" /><rect width="40" height="10" x="200" y="150" fill="#000000" /><rect width="10" height="10" x="240" y="150" fill="#ffef16" /><rect width="10" height="10" x="80" y="160" fill="#ffef16" /><rect width="20" height="10" x="90" y="160" fill="#ffffff" /><rect width="40" height="10" x="110" y="160" fill="#000000" /><rect width="10" height="10" x="150" y="160" fill="#ffef16" /><rect width="10" height="10" x="170" y="160" fill="#ffef16" /><rect width="20" height="10" x="180" y="160" fill="#ffffff" /><rect width="40" height="10" x="200" y="160" fill="#000000" /><rect width="10" height="10" x="240" y="160" fill="#ffef16" /><rect width="40" height="10" x="50" y="170" fill="#ffef16" /><rect width="20" height="10" x="90" y="170" fill="#ffffff" /><rect width="40" height="10" x="110" y="170" fill="#000000" /><rect width="30" height="10" x="150" y="170" fill="#ffef16" /><rect width="20" height="10" x="180" y="170" fill="#ffffff" /><rect width="40" height="10" x="200" y="170" fill="#000000" /><rect width="10" height="10" x="240" y="170" fill="#ffef16" /><rect width="10" height="10" x="50" y="180" fill="#ffef16" /><rect width="10" height="10" x="80" y="180" fill="#ffef16" /><rect width="20" height="10" x="90" y="180" fill="#ffffff" /><rect width="40" height="10" x="110" y="180" fill="#000000" /><rect width="10" height="10" x="150" y="180" fill="#ffef16" /><rect width="10" height="10" x="170" y="180" fill="#ffef16" /><rect width="20" height="10" x="180" y="180" fill="#ffffff" /><rect width="40" height="10" x="200" y="180" fill="#000000" /><rect width="10" height="10" x="240" y="180" fill="#ffef16" /><rect width="10" height="10" x="50" y="190" fill="#ffef16" /><rect width="10" height="10" x="80" y="190" fill="#ffef16" /><rect width="20" height="10" x="90" y="190" fill="#ffffff" /><rect width="40" height="10" x="110" y="190" fill="#000000" /><rect width="10" height="10" x="150" y="190" fill="#ffef16" /><rect width="10" height="10" x="170" y="190" fill="#ffef16" /><rect width="20" height="10" x="180" y="190" fill="#ffffff" /><rect width="40" height="10" x="200" y="190" fill="#000000" /><rect width="10" height="10" x="240" y="190" fill="#ffef16" /><rect width="10" height="10" x="80" y="200" fill="#ffef16" /><rect width="20" height="10" x="90" y="200" fill="#ffffff" /><rect width="40" height="10" x="110" y="200" fill="#000000" /><rect width="10" height="10" x="150" y="200" fill="#ffef16" /><rect width="10" height="10" x="170" y="200" fill="#ffef16" /><rect width="20" height="10" x="180" y="200" fill="#ffffff" /><rect width="40" height="10" x="200" y="200" fill="#000000" /><rect width="10" height="10" x="240" y="200" fill="#ffef16" /><rect width="80" height="10" x="80" y="210" fill="#ffef16" /><rect width="80" height="10" x="170" y="210" fill="#ffef16" /></svg>